<?xml version="1.0" standalone="no"?><!DOCTYPE svg PUBLIC "-//W3C//DTD SVG 1.1//EN" "http://www.w3.org/Graphics/SVG/1.1/DTD/svg11.dtd"><svg t="1546567512718" class="icon" style="" viewBox="0 0 1024 1024" version="1.1" xmlns="http://www.w3.org/2000/svg" p-id="2460" xmlns:xlink="http://www.w3.org/1999/xlink" width="200" height="200"><defs><style type="text/css"></style></defs><path d="M511.62624 947.05152c-239.89248 0-435.0464-195.1488-435.0464-435.05152 0-239.89248 195.1488-435.0464 435.0464-435.0464 239.90272 0 435.0464 195.15392 435.0464 435.0464 0 239.8976-195.14368 435.05152-435.0464 435.05152z m0-817.82272c-211.06688 0-382.7712 171.70432-382.7712 382.76608 0 211.07712 171.70432 382.77632 382.7712 382.77632 211.072 0 382.7712-171.6992 382.7712-382.77632 0.00512-211.06176-171.6992-382.76608-382.7712-382.76608z" fill="" p-id="2461"></path><path d="M511.89248 815.96416c-26.40896 0-47.84128-21.43744-47.84128-47.8464s21.43232-47.84128 47.84128-47.84128c26.4192 0 47.85152 21.43232 47.85152 47.84128s-21.43232 47.8464-47.85152 47.8464zM600.192 505.20576c-27.7504 27.7248-56.3968 56.36608-56.3968 82.10432v53.9392a31.90272 31.90272 0 0 1-31.8976 31.89248 31.90272 31.90272 0 0 1-31.89248-31.89248v-53.9392c0-52.17792 39.86944-92.05248 75.0848-127.24224 25.8048-25.8048 52.5056-52.47488 52.5056-73.74336 0-53.17632-42.93632-96.42496-95.6928-96.42496-53.65248 0-95.68768 41.40032-95.68768 94.2592 0 17.60256-14.28992 31.89248-31.8976 31.89248s-31.8976-14.28992-31.8976-31.89248c0-87.14752 71.54688-158.05952 159.488-158.05952 87.94624 0 159.488 71.86944 159.488 160.22528-0.01536 47.71328-36.21376 83.88608-71.20384 118.88128z" fill="" p-id="2462"></path></svg>