<?xml version="1.0" standalone="no"?><!DOCTYPE svg PUBLIC "-//W3C//DTD SVG 1.1//EN" "http://www.w3.org/Graphics/SVG/1.1/DTD/svg11.dtd"><svg t="1546567455675" class="icon" style="" viewBox="0 0 1024 1024" version="1.1" xmlns="http://www.w3.org/2000/svg" p-id="1735" xmlns:xlink="http://www.w3.org/1999/xlink" width="200" height="200"><defs><style type="text/css"></style></defs><path d="M779.2896 978.45248H175.52384c-55.5264 0-100.59776-46.08-100.59776-102.8608V189.89056C74.92608 133.12 119.99744 87.04 175.52384 87.04h469.44768c18.57536 0 33.54112 15.29344 33.54112 34.28352 0 18.99008-14.96576 34.28352-33.54112 34.28352H175.52384c-18.38592 0-33.53088 15.48288-33.53088 34.28352v685.70624c0 18.9952 15.14496 34.29376 33.53088 34.29376h603.58144c18.57024 0 33.53088-15.29856 33.53088-34.29376V326.84544c0-18.97984 14.96576-34.28352 33.536-34.28352 18.56512 0 33.53088 15.30368 33.53088 34.28352v548.5568c0.1792 56.79104-45.06624 103.05024-100.41344 103.05024z" fill="" p-id="1736"></path><path d="M577.92512 445.89568a31.91808 31.91808 0 0 1-22.81984-9.50784 32.01536 32.01536 0 0 1 0-45.46048l319.63648-319.46752a32.0256 32.0256 0 0 1 45.46048 0 32.02048 32.02048 0 0 1 0 45.4656l-319.63136 319.63136a32.04096 32.04096 0 0 1-22.64576 9.33888zM445.1584 445.89568h-192.9216a32.09728 32.09728 0 0 1-32.15872-32.1536 32.09728 32.09728 0 0 1 32.15872-32.1536h192.91648a32.09216 32.09216 0 0 1 32.15872 32.1536 32.08192 32.08192 0 0 1-32.1536 32.1536zM638.2592 638.8224H252.24192c-17.80736 0-32.15872-14.34624-32.15872-32.14848s14.35136-32.14848 32.15872-32.14848h385.83808c17.81248 0 32.15872 14.34624 32.15872 32.14848s-14.34624 32.14848-31.97952 32.14848z" fill="" p-id="1737"></path></svg>