<?xml version="1.0" standalone="no"?><!DOCTYPE svg PUBLIC "-//W3C//DTD SVG 1.1//EN" "http://www.w3.org/Graphics/SVG/1.1/DTD/svg11.dtd"><svg t="1546567526861" class="icon" style="" viewBox="0 0 1024 1024" version="1.1" xmlns="http://www.w3.org/2000/svg" p-id="2583" xmlns:xlink="http://www.w3.org/1999/xlink" width="200" height="200"><defs><style type="text/css"></style></defs><path d="M856.653 115.37c26.343 0.03 47.774 21.743 47.774 48.404v219.733c0 12.992-4.978 25.159-14.015 34.257l-0.03 0.03-0.03 0.03c-9.083 9.176-20.693 14.025-33.577 14.025h-217.85c-26.275 0-47.65-21.714-47.65-48.405V163.712c0-26.657 21.376-48.343 47.65-48.343h217.728m-523.092 0.063v0.003h51.166c13.013 0 25.234 5.06 34.41 14.246 8.959 8.968 13.884 20.789 13.87 33.285v217.97c0 26.273-21.687 47.649-48.343 47.649H164.931c-12.992 0-25.158-4.977-34.256-14.014-9.215-9.154-14.086-20.786-14.086-33.638v-217.85c0-26.275 21.715-47.651 48.405-47.651h168.567M382.09 586.79c26.277 0 47.654 21.714 47.654 48.405v219.732c0 12.993-4.977 25.158-14.012 34.255-9.156 9.216-20.789 14.088-33.642 14.088H164.24c-26.275 0-47.65-21.715-47.65-48.405V635.132c0-26.656 21.376-48.342 47.65-48.342h217.85m473.995 3.327c13.003 0 25.212 5.053 34.378 14.231 8.98 8.989 13.915 20.859 13.9 33.424v217.846c0 26.275-21.685 47.652-48.341 47.652H636.289c-12.992 0-25.159-4.977-34.256-14.014-9.215-9.154-14.086-20.786-14.086-33.638V637.769c0-26.276 21.714-47.652 48.405-47.652h219.733m0.628-525.913H638.926c-54.494 0-98.817 44.634-98.817 99.508v219.732c0 54.933 44.323 99.57 98.817 99.57h217.85c26.43 0 51.291-10.358 69.937-29.193 18.646-18.771 28.88-43.758 28.88-70.314V163.772c0-54.868-44.324-99.505-98.88-99.568z m-471.986 0.063H164.994c-54.87 0-99.57 44.323-99.57 98.817v217.85c0 26.43 10.359 51.228 29.193 69.937 18.771 18.645 43.758 28.879 70.314 28.879h219.733c54.873 0 99.508-44.32 99.508-98.814V163.024c0.062-54.431-44.575-98.754-99.445-98.754v-0.003z m-2.637 471.358H164.24c-54.493 0-98.816 44.637-98.816 99.507v219.733c0 54.87 44.323 99.57 98.817 99.57H382.09c26.431 0 51.229-10.358 69.94-29.193 18.646-18.772 28.88-43.758 28.88-70.314V635.195c0-54.933-44.324-99.57-98.82-99.57z m473.995 3.327H636.352c-54.87 0-99.57 44.324-99.57 98.817v217.85c0 26.43 10.359 51.228 29.192 69.936 18.773 18.647 43.76 28.88 70.315 28.88h219.733c54.87 0 99.507-44.323 99.507-98.817V637.831c0.063-54.556-44.574-98.88-99.444-98.88z" fill="" p-id="2584"></path></svg>