<?xml version="1.0" standalone="no"?><!DOCTYPE svg PUBLIC "-//W3C//DTD SVG 1.1//EN" "http://www.w3.org/Graphics/SVG/1.1/DTD/svg11.dtd"><svg t="1546567437524" class="icon" style="" viewBox="0 0 1024 1024" version="1.1" xmlns="http://www.w3.org/2000/svg" p-id="1367" xmlns:xlink="http://www.w3.org/1999/xlink" width="200" height="200"><defs><style type="text/css"></style></defs><path d="M868.5 233.785h-78.448v-86.98c0-44.061-39.659-79.917-88.446-79.917H155.498c-48.679 0-88.446 35.856-88.446 79.918v563.491c0 44.06 39.659 79.917 88.446 79.917h78.341v-55.578h-78.341c-17.82 0-32.814-11.137-32.814-24.339V146.806c0-13.202 15.103-24.34 32.814-24.34H701.606c17.818 0 32.813 11.138 32.813 24.34v86.979H322.395c-48.677 0-88.447 35.856-88.447 79.917v563.491c0 44.06 39.66 79.918 88.447 79.918h546.106c48.679 0 88.446-35.857 88.446-79.918V313.702c0-44.06-39.66-79.917-88.446-79.917z m32.816 354.872v288.536c0 13.202-15.104 24.34-32.815 24.34H322.394c-17.82 0-32.814-11.138-32.814-24.34V313.702c0-13.202 15.104-24.34 32.814-24.34H868.5c17.82 0 32.816 11.138 32.816 24.34v274.955zM372.92 455.009h333.683c15.322 0 27.817-12.386 27.817-27.816 0-15.32-12.387-27.816-27.817-27.816H372.919c-15.321 0-27.817 12.496-27.817 27.816 0.001 15.429 12.497 27.816 27.817 27.816z m444.948 111.264H372.919c-15.321 0-27.817 12.496-27.817 27.817 0 15.429 12.496 27.816 27.817 27.816h444.948c15.322 0 27.817-12.386 27.817-27.816 0-15.321-12.388-27.817-27.817-27.817z m0 166.896H372.919c-15.321 0-27.817 12.496-27.817 27.817 0 15.43 12.496 27.816 27.817 27.816h444.948c15.322 0 27.817-12.386 27.817-27.816 0-15.321-12.388-27.817-27.817-27.817z" fill="" p-id="1368"></path></svg>