<?xml version="1.0" standalone="no"?><!DOCTYPE svg PUBLIC "-//W3C//DTD SVG 1.1//EN" "http://www.w3.org/Graphics/SVG/1.1/DTD/svg11.dtd"><svg t="1546567447648" class="icon" style="" viewBox="0 0 1024 1024" version="1.1" xmlns="http://www.w3.org/2000/svg" p-id="1612" xmlns:xlink="http://www.w3.org/1999/xlink" width="200" height="200"><defs><style type="text/css"></style></defs><path d="M520.91392 502.71232c-4.5568 0-9.11872-1.0496-13.30688-3.01568L98.40128 303.46752a30.7968 30.7968 0 0 1-17.50016-27.79136 30.7968 30.7968 0 0 1 17.50016-27.79648l409.21088-196.224c8.4992-4.00384 18.36032-4.06528 26.79808 0.06144l403.85536 196.224a30.75072 30.75072 0 0 1 17.3056 27.73504 30.8224 30.8224 0 0 1-17.3056 27.72992l-403.91168 196.15744a30.02368 30.02368 0 0 1-13.44 3.1488zM183.0144 275.67616l337.8432 161.95584 333.39904-161.95584L520.8576 113.7152 183.0144 275.67616zM520.91392 969.1648a31.09376 31.09376 0 0 1-13.43488-3.08224l-403.84-196.21376a30.81216 30.81216 0 0 1-14.2336-41.23136 30.79168 30.79168 0 0 1 41.16992-14.23872l390.34368 189.68576 390.3488-189.68576c15.34976-7.33184 33.77664-0.98816 41.23648 14.23872 7.38304 15.34464 1.03936 33.77152-14.23872 41.23136l-403.85024 196.21376c-4.2496 2.0992-8.87296 3.08224-13.50144 3.08224z" fill="" p-id="1613"></path><path d="M924.57472 763.94496a30.8224 30.8224 0 0 1-30.81728-30.80704V281.0368a30.8224 30.8224 0 0 1 61.63968 0v452.10624a30.78656 30.78656 0 0 1-30.8224 30.80192zM108.01664 767.5136a30.8224 30.8224 0 0 1-30.81728-30.81216V281.0368a30.82752 30.82752 0 0 1 30.81728-30.81216 30.8224 30.8224 0 0 1 30.81216 30.81216v455.66976a30.8224 30.8224 0 0 1-30.81216 30.80704zM547.15392 930.95936H484.75136V474.04032h62.42816l-0.0256 456.91904z" fill="" p-id="1614"></path></svg>