<?xml version="1.0" standalone="no"?><!DOCTYPE svg PUBLIC "-//W3C//DTD SVG 1.1//EN" "http://www.w3.org/Graphics/SVG/1.1/DTD/svg11.dtd"><svg t="1546567468894" class="icon" style="" viewBox="0 0 1024 1024" version="1.1" xmlns="http://www.w3.org/2000/svg" p-id="1981" xmlns:xlink="http://www.w3.org/1999/xlink" width="200" height="200"><defs><style type="text/css"></style></defs><path d="M569.47 61.786c-15.548 0-28.153 12.605-28.153 28.153v359.704c0 15.548 12.605 28.153 28.153 28.153h359.717c15.548 0 28.153-12.605 28.153-28.153 0-213.868-174.002-387.857-387.87-387.857z m28.152 359.705V119.274C758.03 132.83 886.3 261.083 899.852 421.491h-302.23z" fill="#3E3A39" p-id="1982"></path><path d="M804.123 561.443c0 188.272-153.163 341.449-341.435 341.449s-341.45-153.178-341.45-341.449 153.178-341.435 341.449-341.435h28.152v-56.305h-28.152c-219.326 0-397.754 178.43-397.754 397.74 0 219.326 178.43 397.754 397.754 397.754 219.31 0 397.74-178.43 397.74-397.754v-28.152h-56.305v28.152z" fill="#3E3A39" p-id="1983"></path></svg>