<?xml version="1.0" standalone="no"?><!DOCTYPE svg PUBLIC "-//W3C//DTD SVG 1.1//EN" "http://www.w3.org/Graphics/SVG/1.1/DTD/svg11.dtd"><svg t="1546567402928" class="icon" style="" viewBox="0 0 1024 1024" version="1.1" xmlns="http://www.w3.org/2000/svg" p-id="1122" xmlns:xlink="http://www.w3.org/1999/xlink" width="200" height="200"><defs><style type="text/css"></style></defs><path d="M940.765 780.039L648.948 634.206 739.78 502.06a28.203 28.203 0 0 0 4.947-15.943V286.932c0-125.52-100.671-223.842-229.188-223.842-128.53 0-229.202 98.321-229.202 223.842v199.185a28.13 28.13 0 0 0 5.208 16.314l93.567 131.554L80.594 779.832c-9.772 4.673-15.984 14.555-15.984 25.384V931.63c0 15.544 12.603 28.147 28.147 28.147h835.419c15.543 0 28.146-12.603 28.146-28.147V805.217a28.138 28.138 0 0 0-15.557-25.178zM457.43 737.736l-70.89 30.002-16.768-63.989 19.985-9.572 67.673 43.559z m60.505 35.51l62.166 26.32-36.055 103.918h-61.264l-34.897-100.582 70.05-29.656z m60.508-35.51l66.317-42.686 20.882 10.436-16.324 62.252-70.875-30.002zM342.63 477.13V286.932c0-93.952 75.947-167.549 172.909-167.549 96.947 0 172.894 73.597 172.894 167.549v190.444L584.229 628.983a28.182 28.182 0 0 0-4.055 22.98 28.12 28.12 0 0 0 7.425 12.941l-69.663 44.833-70.29-45.237a28.082 28.082 0 0 0 7.035-12.525 28.172 28.172 0 0 0-4.316-23.364L342.63 477.13zM120.904 822.946l197.167-94.434 22.264 84.964a28.205 28.205 0 0 0 14.802 18.128 28.152 28.152 0 0 0 23.391 0.66l17.402-7.368 27.266 78.587H120.904v-80.537z m779.125 80.538H603.634l28.423-81.92 25.274 10.7a28.148 28.148 0 0 0 23.391-0.66 28.172 28.172 0 0 0 14.802-18.127l21.57-82.279 182.935 91.418v80.868z" fill="#3E3A39" p-id="1123"></path></svg>