<?xml version="1.0" standalone="no"?><!DOCTYPE svg PUBLIC "-//W3C//DTD SVG 1.1//EN" "http://www.w3.org/Graphics/SVG/1.1/DTD/svg11.dtd"><svg t="1546567430039" class="icon" style="" viewBox="0 0 1024 1024" version="1.1" xmlns="http://www.w3.org/2000/svg" p-id="1244" xmlns:xlink="http://www.w3.org/1999/xlink" width="200" height="200"><defs><style type="text/css"></style></defs><path d="M796.548 179.187h-28.327c-0.59-31.975-26.774-57.804-58.873-57.804h-50.703v-1.386c0-32.48-26.435-58.9-58.902-58.9H427.618c-32.468 0-58.902 26.42-58.902 58.9l-53.5 1.386c-32.126 0-58.312 25.83-58.9 57.804h-28.327c-35.073 0-63.619 28.533-63.619 63.618v650.866c0 35.072 28.546 63.618 63.619 63.618h568.559c35.072 0 63.618-28.546 63.618-63.618V242.805c0-35.085-28.546-63.618-63.618-63.618z m-484.101 1.097c0-1.509 1.234-2.742 2.77-2.742h81.578c15.522 0 28.08-12.574 28.08-28.08v-29.465a2.75 2.75 0 0 1 2.743-2.742h172.125a2.75 2.75 0 0 1 2.742 2.742v29.465c0 15.506 12.559 28.08 28.08 28.08h78.782a2.75 2.75 0 0 1 2.742 2.742v69.363a2.75 2.75 0 0 1-2.742 2.742h-394.13c-1.536 0-2.77-1.234-2.77-2.742v-69.363z m491.56 713.387c0 4.113-3.345 7.459-7.459 7.459h-568.56c-4.112 0-7.458-3.345-7.458-7.46V242.806c0-4.113 3.345-7.459 7.459-7.459h28.299v14.3c0 32.482 26.434 58.903 58.928 58.903h394.132c32.467 0 58.902-26.42 58.902-58.902v-14.3h28.299c4.113 0 7.459 3.344 7.459 7.458v650.866z" fill="#3E3A39" p-id="1245"></path><path d="M520.494 697.716H360.243c-15.521 0-28.08 12.573-28.08 28.08 0 15.507 12.559 28.08 28.08 28.08h160.252c15.521 0 28.08-12.573 28.08-28.08 0-15.507-12.56-28.08-28.08-28.08z m146.624-151.915H360.243c-15.521 0-28.08 12.572-28.08 28.08 0 15.506 12.559 28.08 28.08 28.08h306.875c15.52 0 28.08-12.573 28.08-28.08s-12.56-28.08-28.08-28.08z m0-146.364H360.243c-15.521 0-28.08 12.572-28.08 28.08 0 15.507 12.559 28.08 28.08 28.08h306.875c15.52 0 28.08-12.573 28.08-28.08 0-15.507-12.56-28.08-28.08-28.08z" fill="#3E3A39" p-id="1246"></path></svg>