<?xml version="1.0" standalone="no"?><!DOCTYPE svg PUBLIC "-//W3C//DTD SVG 1.1//EN" "http://www.w3.org/Graphics/SVG/1.1/DTD/svg11.dtd"><svg t="1546567463515" class="icon" style="" viewBox="0 0 1024 1024" version="1.1" xmlns="http://www.w3.org/2000/svg" p-id="1858" xmlns:xlink="http://www.w3.org/1999/xlink" width="200" height="200"><defs><style type="text/css"></style></defs><path d="M893.09 161.585H715.042V90.563c0-15.424-12.492-27.93-27.93-27.93-15.437 0-27.93 12.506-27.93 27.93v71.022H390.473V90.563c0-15.424-12.491-27.93-27.93-27.93s-27.93 12.506-27.93 27.93v71.022H126.402c-34.884 0-63.277 28.38-63.277 63.278v647.362c0 34.898 28.393 63.278 63.277 63.278h766.69c34.883 0 63.276-28.38 63.276-63.278V224.863c0-34.898-28.392-63.278-63.277-63.278z m7.42 710.64a7.427 7.427 0 0 1-7.42 7.42H126.4a7.427 7.427 0 0 1-7.418-7.42V224.863a7.427 7.427 0 0 1 7.419-7.42h208.214v64.696c0 15.424 12.491 27.93 27.93 27.93s27.929-12.506 27.929-27.93v-64.695h268.71v64.695c0 15.424 12.49 27.93 27.93 27.93 15.436 0 27.929-12.506 27.929-27.93v-64.695H893.09a7.427 7.427 0 0 1 7.42 7.419v647.362z" fill="#3E3A39" p-id="1859"></path><path d="M236.674 478.724a51.823 51.823 0 1 0 103.646 0 51.823 51.823 0 1 0-103.646 0zM465.455 478.724a51.823 51.823 0 1 0 103.646 0 51.823 51.823 0 1 0-103.646 0zM694.237 478.724a51.823 51.823 0 1 0 103.646 0 51.823 51.823 0 1 0-103.646 0zM236.674 680.997a51.823 51.823 0 1 0 103.646 0 51.823 51.823 0 1 0-103.646 0zM465.454 680.997a51.824 51.824 0 1 0 103.648 0 51.824 51.824 0 1 0-103.648 0zM694.236 680.997a51.824 51.824 0 1 0 103.648 0 51.824 51.824 0 1 0-103.648 0z" fill="#3E3A39" p-id="1860"></path></svg>