<?xml version="1.0" standalone="no"?><!DOCTYPE svg PUBLIC "-//W3C//DTD SVG 1.1//EN" "http://www.w3.org/Graphics/SVG/1.1/DTD/svg11.dtd"><svg t="1546567473778" class="icon" style="" viewBox="0 0 1024 1024" version="1.1" xmlns="http://www.w3.org/2000/svg" p-id="2104" xmlns:xlink="http://www.w3.org/1999/xlink" width="200" height="200"><defs><style type="text/css"></style></defs><path d="M755.302 722.134l-221.169-110.53 66.821-97.226a28.058 28.058 0 0 0 4.917-15.844V343.338c0-101.186-81.08-180.464-184.617-180.464-103.536 0-184.617 79.277-184.617 180.464v155.196a27.853 27.853 0 0 0 5.177 16.2l68.732 96.651-230.798 110.53a28.014 28.014 0 0 0-15.885 25.242v98.51c0 15.463 12.525 27.973 27.973 27.973H742.79c15.463 0 27.973-12.511 27.973-27.973v-98.51c0.001-10.6-5.981-20.297-15.461-25.023z m-40.486 95.56H119.811v-52.916L364.678 647.5a27.92 27.92 0 0 0 14.998-18.249 27.809 27.809 0 0 0-4.289-23.193L292.585 489.6V343.338c0-69.825 56.522-124.516 128.67-124.516 72.147 0 128.669 54.69 128.669 124.516v146.508L469.8 606.413a27.966 27.966 0 0 0-4.044 22.838c2.049 7.84 7.349 14.425 14.589 18.03l234.472 117.168v53.244z" fill="#3E3A39" p-id="2105"></path><path d="M942.432 653.128l-221.14-110.53 66.82-97.226a28.06 28.06 0 0 0 4.918-15.845V274.333c0-101.187-81.08-180.465-184.617-180.465-20.161 0-39.912 3.06-58.706 9.097l17.1 53.27c13.277-4.26 27.265-6.42 41.606-6.42 72.147 0 128.669 54.692 128.669 124.518V420.84l-80.124 116.568a27.966 27.966 0 0 0-4.044 22.837c2.05 7.841 7.349 14.425 14.589 18.03l234.445 117.168v53.243h-69.744v55.949h97.717c15.462 0 27.974-12.512 27.974-27.974v-98.51c0-10.6-5.984-20.296-15.463-25.023z" fill="#3E3A39" p-id="2106"></path></svg>