<?xml version="1.0" standalone="no"?><!DOCTYPE svg PUBLIC "-//W3C//DTD SVG 1.1//EN" "http://www.w3.org/Graphics/SVG/1.1/DTD/svg11.dtd"><svg t="1546567442895" class="icon" style="" viewBox="0 0 1024 1024" version="1.1" xmlns="http://www.w3.org/2000/svg" p-id="1489" xmlns:xlink="http://www.w3.org/1999/xlink" width="200" height="200"><defs><style type="text/css"></style></defs><path d="M808.137 63.046H211.308c-40.523 0-73.495 32.944-73.495 73.468V885.86c0 40.524 32.971 73.496 73.495 73.496h596.83c40.523 0 73.482-32.972 73.482-73.496V136.514c0-40.524-32.96-73.468-73.483-73.468z m17.444 822.814c0 9.632-7.825 17.458-17.444 17.458H211.308c-9.631 0-17.457-7.826-17.457-17.458V136.514c0-9.604 7.826-17.43 17.457-17.43h596.83c9.618 0 17.443 7.826 17.443 17.43V885.86z" fill="#3E3A39" p-id="1490"></path><path d="M718.54 266.895H448.567c-15.473 0-28.018 12.533-28.018 28.02s12.545 28.02 28.018 28.02H718.54c15.473 0 28.019-12.533 28.019-28.02s-12.546-28.02-28.019-28.02z m0 218.955H448.567c-15.473 0-28.018 12.532-28.018 28.019 0 15.487 12.545 28.02 28.018 28.02H718.54c15.473 0 28.019-12.533 28.019-28.02s-12.546-28.019-28.019-28.019z m0 213.59H448.567c-15.473 0-28.018 12.533-28.018 28.02s12.545 28.019 28.018 28.019H718.54c15.473 0 28.019-12.532 28.019-28.019 0-15.487-12.546-28.02-28.019-28.02zM275.756 294.922a46.177 46.177 0 1 0 92.354 0 46.177 46.177 0 1 0-92.354 0zM275.756 513.882a46.177 46.177 0 1 0 92.354 0 46.177 46.177 0 1 0-92.354 0zM275.756 727.468a46.177 46.177 0 1 0 92.354 0 46.177 46.177 0 1 0-92.354 0z" fill="#3E3A39" p-id="1491"></path></svg>