<?xml version="1.0" standalone="no"?><!DOCTYPE svg PUBLIC "-//W3C//DTD SVG 1.1//EN" "http://www.w3.org/Graphics/SVG/1.1/DTD/svg11.dtd"><svg t="1546567479231" class="icon" style="" viewBox="0 0 1024 1024" version="1.1" xmlns="http://www.w3.org/2000/svg" p-id="2221" xmlns:xlink="http://www.w3.org/1999/xlink" width="200" height="200"><defs><style type="text/css"></style></defs><path d="M508.7232 116.3264C373.3504 116.3264 263.168 226.5088 263.168 361.984c0 97.3824 56.9344 181.6576 139.264 221.3888C255.6928 627.0976 143.9744 770.8672 143.9744 927.744l37.7856 0c0-188.416 161.28-320.2048 312.832-320.2048l0-0.4096c4.7104 0.3072 9.4208 0.4096 14.1312 0.4096 135.4752 0 245.6576-110.1824 245.6576-245.6576S644.1984 116.3264 508.7232 116.3264zM508.7232 569.7536c-114.5856 0-207.872-93.184-207.872-207.872s93.184-207.872 207.872-207.872 207.872 93.184 207.872 207.872S623.3088 569.7536 508.7232 569.7536z" p-id="2222"></path><path d="M721.1008 632.7296l-22.016 32.4608C784.6912 726.528 835.7888 814.08 835.7888 927.744l37.7856 0C873.5744 814.08 816.5376 701.2352 721.1008 632.7296z" p-id="2223"></path></svg>