<?xml version="1.0" standalone="no"?><!DOCTYPE svg PUBLIC "-//W3C//DTD SVG 1.1//EN" "http://www.w3.org/Graphics/SVG/1.1/DTD/svg11.dtd"><svg t="1546567493838" class="icon" style="" viewBox="0 0 1024 1024" version="1.1" xmlns="http://www.w3.org/2000/svg" p-id="2338" xmlns:xlink="http://www.w3.org/1999/xlink" width="200" height="200"><defs><style type="text/css"></style></defs><path d="M64 515.7h359v50H114v260h279v50H64v-360z m0-420.2v330h429v-50H114v-230h796v235.3h50V95.5H64z m814.2 553H960v50h-81.8c-4.2 29.6-15.9 56.9-33.1 79.8l57.8 57.8-35.4 35.4-57.8-57.8c-22.9 17.2-50.2 28.8-79.8 33.1v81.8h-50v-81.8c-29.6-4.2-56.9-15.9-79.8-33.1l-57.8 57.8-35.3-35.3 57.8-57.8c-17.2-22.9-28.8-50.2-33.1-79.8H450v-50h81.8c4.2-29.6 15.9-56.9 33.1-79.8L507 510.9l35.4-35.4 57.8 57.8c22.9-17.2 50.2-28.8 79.8-33.1v-81.8h50v81.8c29.6 4.2 56.9 15.9 79.8 33.1l57.8-57.8 35.4 35.4-57.8 57.8c17.1 22.9 28.8 50.2 33 79.8z m-46.9 25l-2.6-17.9c-2.9-20.6-11.1-40.2-23.6-56.9l-10.8-14.5-14.5-10.8c-16.7-12.5-36.3-20.6-56.9-23.6l-17.9-2.6-17.9 2.6c-20.6 2.9-40.2 11.1-56.9 23.6l-14.5 10.8-10.8 14.5c-12.5 16.7-20.6 36.3-23.6 56.9l-2.6 17.9 2.6 17.9c2.9 20.6 11.1 40.2 23.6 56.9l10.8 14.5 14.5 10.8c16.7 12.5 36.3 20.6 56.9 23.6l17.9 2.6 17.9-2.6c20.6-2.9 40.2-11.1 56.9-23.6l14.5-10.8 10.8-14.5c12.5-16.7 20.6-36.3 23.6-56.9l2.6-17.9z" fill="" p-id="2339"></path></svg>